# xmcd CD database file
#
# Track frame offsets:
#	183
#	14650
#	34525
#	50200
#	66750
#	83123
#	98955
#	116390
#	132563
#	147985
#	161650
#	179323
#	195745
#	210658
#	227165
#	243200
#
# Disc length: 3413 seconds
#
# Revision: 0
# Processed by: cddbd v1.5.1PL0 Copyright (c) Steve Scherf et al.
# Submitted via: Feurio! 1.64 - http://www.feurio.com
#
DISCID=e40d5310
DTITLE=Al Bano and Romina Power - Canzone Blu
DYEAR=1900
DGENRE=Oldies
TTITLE0=Felicità
TTITLE1=Sharazan
TTITLE2=Ci Sarà
TTITLE3=Tu Sultanto Tu
TTITLE4=Magic Oh Magic
TTITLE5=Angeli
TTITLE6=Sempre Sempre
TTITLE7=Che Angelo Sei
TTITLE8=Canzone Blu
TTITLE9=Canto Di Libertà
TTITLE10=Perchè
TTITLE11=Ciao, Aufwiedersehen, Goodye
TTITLE12=Quando Un Amore Se Ne Va
TTITLE13=Lo Ti Cerco
TTITLE14=Grazie
TTITLE15=Gli Innamorati
EXTD=Pepi
EXTT0=
EXTT1=
EXTT2=
EXTT3=
EXTT4=
EXTT5=
EXTT6=
EXTT7=
EXTT8=
EXTT9=
EXTT10=
EXTT11=
EXTT12=
EXTT13=
EXTT14=
EXTT15=
PLAYORDER=
